<?xml version="1.0" standalone="no"?>
<svg viewBox="0 0 200 200" xmlns="http://www.w3.org/2000/svg">
  <path fill="#8C61FF" d="M43.6,-75.1C57.3,-67.6,69.8,-57.5,76.6,-44.6C83.5,-31.6,84.7,-15.8,83.6,-0.7C82.4,14.5,78.7,28.9,72.5,42.9C66.2,56.9,57.4,70.4,44.8,74.8C32.3,79.2,16.2,74.4,-0.2,74.7C-16.6,75.1,-33.1,80.6,-47.3,77.2C-61.5,73.8,-73.4,61.5,-81.1,47.1C-88.9,32.8,-92.6,16.4,-89.9,1.5C-87.3,-13.4,-78.4,-26.7,-68.3,-37.1C-58.2,-47.4,-47,-54.7,-35.4,-63.4C-23.9,-72.1,-11.9,-82.2,1.5,-84.8C14.9,-87.5,29.9,-82.6,43.6,-75.1Z" transform="translate(100 100)" />
</svg>
