<?xml version="1.0" standalone="no"?>
<svg viewBox="0 0 200 200" xmlns="http://www.w3.org/2000/svg">
  <path fill="#8C61FF" d="M40,-72.4C49.1,-64,52,-47.8,60.3,-34.5C68.7,-21.1,82.5,-10.6,86,2C89.5,14.5,82.5,29.1,73.7,41.7C64.9,54.3,54.3,64.9,41.7,68.2C29.1,71.6,14.5,67.6,1.6,64.8C-11.2,61.9,-22.5,60.2,-35.1,56.8C-47.7,53.5,-61.7,48.6,-69.3,38.9C-77,29.1,-78.3,14.6,-79.8,-0.8C-81.3,-16.2,-82.8,-32.5,-77.3,-45.9C-71.8,-59.4,-59.2,-70,-45.1,-75.5C-31.1,-81.1,-15.5,-81.4,-0.1,-81.3C15.4,-81.2,30.9,-80.7,40,-72.4Z" transform="translate(100 100)" />
</svg>
