<?xml version="1.0" standalone="no"?>
<svg viewBox="0 0 200 200" xmlns="http://www.w3.org/2000/svg">
  <path fill="#8C61FF" d="M43.6,-75.1C56.6,-68,67.2,-56.5,76,-43.2C84.8,-29.9,91.9,-15,93,0.7C94.2,16.3,89.4,32.6,81,46.5C72.5,60.5,60.4,72,46.3,78.5C32.2,85,16.1,86.3,1.5,83.6C-13,81,-26,74.3,-37.4,66.3C-48.9,58.3,-58.7,48.9,-66.9,37.6C-75.1,26.4,-81.7,13.2,-81.3,0.3C-80.8,-12.7,-73.3,-25.3,-66.8,-39.5C-60.3,-53.7,-54.7,-69.5,-43.8,-77.7C-32.8,-85.9,-16.4,-86.6,-0.5,-85.7C15.3,-84.7,30.6,-82.1,43.6,-75.1Z" transform="translate(100 100)" />
</svg>
